<svg width="100" height="103" viewBox="0 0 100 103" fill="none" xmlns="http://www.w3.org/2000/svg">
<path d="M99.7691 38.7346C99.7691 38.9403 99.8204 39.0946 99.923 39.1975C100.026 39.3004 100.026 39.4547 99.923 39.6605V42.7469C99.923 43.7757 99.5638 44.6502 98.8453 45.3704C98.1268 46.0905 97.2543 46.4506 96.2279 46.4506H89.1455V96.4506C89.1455 97.4794 88.8376 98.3025 88.2217 98.9198C87.6059 99.537 86.7334 99.8971 85.6043 100H14.3187C13.2923 100 12.4198 99.6399 11.7013 98.9198C10.9828 98.1996 10.6236 97.3765 10.6236 96.4506V46.4506H3.54119C2.51476 46.4506 1.69361 46.0905 1.07775 45.3704C0.461894 44.6502 0.102643 43.7757 0 42.7469V39.6605C0 39.249 0.0513215 38.9403 0.153965 38.7346L9.23788 5.24691C9.75109 3.60082 10.6236 2.31481 11.8553 1.38889C13.087 0.462963 14.524 0 16.1663 0H83.7567C85.399 0 86.836 0.462963 88.0677 1.38889C89.2995 2.31481 90.1206 3.60082 90.5312 5.24691L99.7691 38.7346ZM78.5219 46.4506H21.4011V66.0494C21.4011 66.5638 21.6064 66.9753 22.0169 67.2839C22.4275 67.5926 22.8381 67.7984 23.2487 67.9012H76.6744C77.1876 67.9012 77.6495 67.6955 78.06 67.2839C78.4706 66.8724 78.6246 66.4609 78.5219 66.0494V46.4506Z" fill="#BD1E51"/>
<path d="M42.1328 75.7266H44.9453V93H42.1328V75.7266ZM47.1016 75.7266C47.8359 75.7266 48.5625 75.8438 49.2812 76.0781C50 76.3125 50.6406 76.6641 51.2031 77.1328C51.7812 77.6016 52.2422 78.1719 52.5859 78.8438C52.9453 79.5 53.125 80.2422 53.125 81.0703C53.125 81.9453 52.9766 82.7422 52.6797 83.4609C52.3828 84.1641 51.9688 84.7578 51.4375 85.2422C50.9062 85.7266 50.2656 86.1016 49.5156 86.3672C48.7656 86.6328 47.9375 86.7656 47.0312 86.7656H45.9062V84.7031H47.5234C47.8672 84.7031 48.2031 84.6484 48.5312 84.5391C48.875 84.4141 49.1875 84.2188 49.4688 83.9531C49.75 83.6875 49.9766 83.3203 50.1484 82.8516C50.3203 82.3672 50.4062 81.7734 50.4062 81.0703C50.4062 80.7891 50.3672 80.4688 50.2891 80.1094C50.2109 79.7344 50.0469 79.3828 49.7969 79.0547C49.5625 78.7109 49.2266 78.4297 48.7891 78.2109C48.3516 77.9766 47.7734 77.8594 47.0547 77.8594H45.9062V75.7266H47.1016Z" fill="white"/>
<g opacity="0.9" filter="url(#filter0_d)">
<path d="M57.9609 77.7266L57.9609 92.8672H50.0156V95H60.8203L60.8203 77.7266H57.9609Z" fill="white"/>
</g>
<path d="M50 5C41.6 5 34 10.4001 34 18.7517C34 24.0847 38.9 30.3569 48.68 37.5849C49.44 38.1384 50.58 38.1384 51.34 37.5849C61.1 30.3569 66 24.0847 66 18.7517C66 10.4001 58.4 5 50 5ZM46.46 22.8773L43.64 20.5126C43.4548 20.3574 43.308 20.1731 43.2077 19.9702C43.1075 19.7673 43.056 19.5499 43.056 19.3303C43.056 19.1108 43.1075 18.8933 43.2077 18.6905C43.308 18.4876 43.4548 18.3033 43.64 18.148C43.8252 17.9927 44.045 17.8696 44.2869 17.7856C44.5288 17.7015 44.7881 17.6583 45.05 17.6583C45.3119 17.6583 45.5712 17.7015 45.8131 17.7856C46.055 17.8696 46.2748 17.9927 46.46 18.148L47.88 19.3387L53.54 14.5927C53.7252 14.4374 53.945 14.3143 54.1869 14.2302C54.4288 14.1462 54.6881 14.103 54.95 14.103C55.2119 14.103 55.4712 14.1462 55.7131 14.2302C55.955 14.3143 56.1748 14.4374 56.36 14.5927C56.5452 14.7479 56.692 14.9323 56.7923 15.1351C56.8925 15.338 56.944 15.5554 56.944 15.775C56.944 15.9946 56.8925 16.212 56.7923 16.4149C56.692 16.6177 56.5452 16.802 56.36 16.9573L49.28 22.894C48.52 23.5313 47.24 23.5313 46.46 22.8773Z" fill="white"/>
<defs>
<filter id="filter0_d" x="46.0156" y="77.7266" width="18.8047" height="25.2734" filterUnits="userSpaceOnUse" color-interpolation-filters="sRGB">
<feFlood flood-opacity="0" result="BackgroundImageFix"/>
<feColorMatrix in="SourceAlpha" type="matrix" values="0 0 0 0 0 0 0 0 0 0 0 0 0 0 0 0 0 0 127 0"/>
<feOffset dy="4"/>
<feGaussianBlur stdDeviation="2"/>
<feColorMatrix type="matrix" values="0 0 0 0 0 0 0 0 0 0 0 0 0 0 0 0 0 0 0.25 0"/>
<feBlend mode="normal" in2="BackgroundImageFix" result="effect1_dropShadow"/>
<feBlend mode="normal" in="SourceGraphic" in2="effect1_dropShadow" result="shape"/>
</filter>
</defs>
</svg>
