<svg width="100" height="126" viewBox="0 0 100 126" fill="none" xmlns="http://www.w3.org/2000/svg">
<path d="M26.864 108.984C26.864 109.592 26.7573 110.141 26.544 110.632C26.3413 111.112 26.0427 111.523 25.648 111.864C25.264 112.195 24.7947 112.451 24.24 112.632C23.6853 112.813 23.0613 112.904 22.368 112.904C22.1867 112.904 22.0107 112.899 21.84 112.888C21.68 112.877 21.5147 112.861 21.344 112.84C21.344 113.661 21.344 114.403 21.344 115.064C21.3547 115.715 21.3707 116.36 21.392 117H19.136C19.1573 116.488 19.1733 116.04 19.184 115.656C19.2053 115.261 19.2213 114.856 19.232 114.44C19.2427 114.013 19.248 113.539 19.248 113.016C19.2587 112.493 19.264 111.843 19.264 111.064C19.264 110.168 19.2587 109.309 19.248 108.488C19.2373 107.667 19.216 106.824 19.184 105.96C19.4187 105.917 19.6747 105.875 19.952 105.832C20.2293 105.789 20.512 105.752 20.8 105.72C21.0987 105.688 21.392 105.667 21.68 105.656C21.9787 105.635 22.2667 105.624 22.544 105.624C23.4293 105.624 24.1493 105.725 24.704 105.928C25.2693 106.12 25.712 106.376 26.032 106.696C26.352 107.005 26.5707 107.363 26.688 107.768C26.8053 108.163 26.864 108.568 26.864 108.984ZM21.344 111.448C21.4933 111.48 21.648 111.501 21.808 111.512C21.968 111.523 22.1333 111.528 22.304 111.528C23.104 111.528 23.712 111.336 24.128 110.952C24.544 110.557 24.752 109.981 24.752 109.224C24.752 108.52 24.576 107.981 24.224 107.608C23.8827 107.235 23.392 107.048 22.752 107.048C22.5387 107.048 22.3147 107.069 22.08 107.112C21.856 107.144 21.6213 107.192 21.376 107.256C21.3547 107.768 21.344 108.344 21.344 108.984C21.344 109.624 21.344 110.397 21.344 111.304V111.448ZM29.4424 108.712C29.6664 109.064 29.8424 109.373 29.9704 109.64C30.0984 109.896 30.189 110.168 30.2424 110.456C30.349 110.296 30.4824 110.125 30.6424 109.944C30.8024 109.752 30.9837 109.576 31.1864 109.416C31.389 109.245 31.613 109.096 31.8584 108.968C32.1037 108.84 32.365 108.755 32.6424 108.712L32.7864 110.984C32.2637 110.984 31.7784 111.032 31.3304 111.128C30.8824 111.213 30.5624 111.363 30.3704 111.576C30.381 111.779 30.3864 112.003 30.3864 112.248C30.3864 112.483 30.3864 112.749 30.3864 113.048C30.3864 113.389 30.3917 113.757 30.4024 114.152C30.413 114.536 30.4237 114.909 30.4344 115.272C30.4557 115.624 30.477 115.955 30.4984 116.264C30.5197 116.573 30.541 116.819 30.5624 117H28.3064C28.317 116.776 28.3277 116.515 28.3384 116.216C28.349 115.917 28.3597 115.608 28.3704 115.288C28.381 114.968 28.3864 114.643 28.3864 114.312C28.397 113.971 28.4024 113.645 28.4024 113.336C28.4024 112.845 28.3917 112.445 28.3704 112.136C28.349 111.816 28.3064 111.544 28.2424 111.32C28.1784 111.085 28.093 110.872 27.9864 110.68C27.8797 110.488 27.741 110.264 27.5704 110.008L29.4424 108.712ZM37.1604 110.12C36.659 110.12 36.275 110.387 36.0084 110.92C35.7417 111.443 35.6084 112.163 35.6084 113.08C35.6084 113.976 35.715 114.675 35.9284 115.176C36.1524 115.667 36.5364 115.912 37.0804 115.912C37.5817 115.912 37.971 115.64 38.2484 115.096C38.5257 114.541 38.6644 113.805 38.6644 112.888C38.6644 112.461 38.643 112.077 38.6004 111.736C38.5577 111.395 38.4777 111.107 38.3604 110.872C38.2537 110.627 38.099 110.44 37.8964 110.312C37.7044 110.184 37.459 110.12 37.1604 110.12ZM33.5124 113.128C33.5124 112.467 33.603 111.869 33.7844 111.336C33.9657 110.803 34.2164 110.349 34.5364 109.976C34.867 109.603 35.267 109.315 35.7364 109.112C36.2057 108.909 36.7284 108.808 37.3044 108.808C38.3924 108.808 39.235 109.155 39.8324 109.848C40.4404 110.541 40.7444 111.512 40.7444 112.76C40.7444 113.432 40.6537 114.04 40.4724 114.584C40.291 115.128 40.035 115.597 39.7044 115.992C39.3737 116.376 38.9737 116.675 38.5044 116.888C38.0457 117.091 37.5337 117.192 36.9684 117.192C36.435 117.192 35.955 117.096 35.5284 116.904C35.1017 116.712 34.739 116.44 34.4404 116.088C34.1417 115.736 33.9124 115.309 33.7524 114.808C33.5924 114.307 33.5124 113.747 33.5124 113.128ZM47.2653 113.784C47.0093 113.773 46.7799 113.768 46.5773 113.768C46.3746 113.757 46.1773 113.752 45.9852 113.752C45.7933 113.741 45.5959 113.736 45.3932 113.736C45.1906 113.725 44.9613 113.72 44.7053 113.72C44.4493 113.72 44.2199 113.725 44.0173 113.736C43.8146 113.736 43.6173 113.741 43.4253 113.752C43.2333 113.752 43.0359 113.757 42.8333 113.768C42.6306 113.768 42.4013 113.773 42.1453 113.784L42.2253 112.312C42.4813 112.323 42.7106 112.333 42.9133 112.344C43.1159 112.355 43.3133 112.365 43.5053 112.376C43.6973 112.376 43.8946 112.376 44.0973 112.376C44.2999 112.376 44.5293 112.376 44.7853 112.376C45.0413 112.376 45.2706 112.376 45.4733 112.376C45.6759 112.376 45.8733 112.376 46.0653 112.376C46.2573 112.365 46.4546 112.355 46.6573 112.344C46.8706 112.333 47.1053 112.323 47.3613 112.312L47.2653 113.784ZM55.7548 117H49.3548C49.3654 116.488 49.3761 116.04 49.3868 115.656C49.4081 115.261 49.4241 114.856 49.4348 114.44C49.4454 114.013 49.4561 113.528 49.4668 112.984C49.4774 112.44 49.4828 111.757 49.4828 110.936C49.4828 110.115 49.4774 109.299 49.4668 108.488C49.4561 107.667 49.4348 106.824 49.4028 105.96L51.6908 105.8C51.6588 106.141 51.6321 106.493 51.6108 106.856C51.6001 107.208 51.5894 107.603 51.5788 108.04C51.5788 108.467 51.5734 108.947 51.5628 109.48C51.5628 110.013 51.5628 110.621 51.5628 111.304C51.5628 112.179 51.5628 112.941 51.5628 113.592C51.5628 114.243 51.5681 114.856 51.5788 115.432H55.7548V117ZM60.1135 110.12C59.6122 110.12 59.2282 110.387 58.9615 110.92C58.6948 111.443 58.5615 112.163 58.5615 113.08C58.5615 113.976 58.6682 114.675 58.8815 115.176C59.1055 115.667 59.4895 115.912 60.0335 115.912C60.5348 115.912 60.9242 115.64 61.2015 115.096C61.4788 114.541 61.6175 113.805 61.6175 112.888C61.6175 112.461 61.5962 112.077 61.5535 111.736C61.5108 111.395 61.4308 111.107 61.3135 110.872C61.2068 110.627 61.0522 110.44 60.8495 110.312C60.6575 110.184 60.4122 110.12 60.1135 110.12ZM56.4655 113.128C56.4655 112.467 56.5562 111.869 56.7375 111.336C56.9188 110.803 57.1695 110.349 57.4895 109.976C57.8202 109.603 58.2202 109.315 58.6895 109.112C59.1588 108.909 59.6815 108.808 60.2575 108.808C61.3455 108.808 62.1882 109.155 62.7855 109.848C63.3935 110.541 63.6975 111.512 63.6975 112.76C63.6975 113.432 63.6068 114.04 63.4255 114.584C63.2442 115.128 62.9882 115.597 62.6575 115.992C62.3268 116.376 61.9268 116.675 61.4575 116.888C60.9988 117.091 60.4868 117.192 59.9215 117.192C59.3882 117.192 58.9082 117.096 58.4815 116.904C58.0548 116.712 57.6922 116.44 57.3935 116.088C57.0948 115.736 56.8655 115.309 56.7055 114.808C56.5455 114.307 56.4655 113.747 56.4655 113.128ZM64.7944 113.528C64.7944 112.728 64.8797 112.035 65.0504 111.448C65.2317 110.851 65.4824 110.36 65.8024 109.976C66.1224 109.581 66.4957 109.288 66.9224 109.096C67.3597 108.904 67.8344 108.808 68.3464 108.808C68.677 108.808 68.949 108.84 69.1624 108.904C69.3864 108.957 69.6317 108.984 69.8984 108.984C70.0157 108.984 70.1277 108.973 70.2344 108.952C70.341 108.931 70.501 108.888 70.7144 108.824L70.8904 111.928L69.3224 112.136C69.333 112.029 69.3384 111.933 69.3384 111.848C69.349 111.752 69.3544 111.651 69.3544 111.544C69.3544 110.957 69.2477 110.541 69.0344 110.296C68.8317 110.04 68.613 109.912 68.3784 109.912C67.8664 109.912 67.4877 110.179 67.2424 110.712C66.997 111.245 66.8744 112.029 66.8744 113.064C66.8744 113.939 67.013 114.568 67.2904 114.952C67.5784 115.336 67.9944 115.528 68.5384 115.528C68.9117 115.528 69.2797 115.464 69.6424 115.336C70.0157 115.197 70.341 115.069 70.6184 114.952V116.36C70.277 116.669 69.8664 116.883 69.3864 117C68.917 117.128 68.437 117.192 67.9464 117.192C67.5517 117.192 67.1624 117.144 66.7784 117.048C66.405 116.952 66.069 116.776 65.7704 116.52C65.4824 116.253 65.2477 115.88 65.0664 115.4C64.885 114.92 64.7944 114.296 64.7944 113.528ZM74.0775 117.192C73.4055 117.192 72.8615 116.963 72.4455 116.504C72.0402 116.045 71.8375 115.448 71.8375 114.712C71.8375 113.944 72.0615 113.331 72.5095 112.872C72.9575 112.413 73.5548 112.184 74.3015 112.184C74.6108 112.184 74.9202 112.227 75.2295 112.312C75.5388 112.397 75.8162 112.52 76.0615 112.68V111.784C76.0615 111.283 75.9655 110.931 75.7735 110.728C75.5815 110.525 75.2508 110.424 74.7815 110.424C74.4615 110.424 74.1202 110.467 73.7575 110.552C73.4055 110.627 73.1228 110.723 72.9095 110.84L72.4135 109.304C72.5735 109.24 72.7655 109.176 72.9895 109.112C73.2135 109.048 73.4535 108.995 73.7095 108.952C73.9655 108.909 74.2268 108.877 74.4935 108.856C74.7602 108.824 75.0055 108.808 75.2295 108.808C77.1068 108.808 78.0455 109.725 78.0455 111.56C78.0455 111.72 78.0348 111.955 78.0135 112.264C78.0028 112.573 77.9868 112.899 77.9655 113.24C77.9548 113.571 77.9388 113.88 77.9175 114.168C77.9068 114.456 77.9015 114.659 77.9015 114.776C77.9015 115.021 77.9388 115.197 78.0135 115.304C78.0882 115.411 78.2268 115.464 78.4295 115.464C78.5682 115.464 78.7282 115.443 78.9095 115.4L78.6535 116.936C78.4828 116.989 78.3228 117.032 78.1735 117.064C78.0348 117.096 77.8908 117.112 77.7415 117.112C77.3468 117.112 77.0162 117.005 76.7495 116.792C76.4828 116.568 76.3228 116.253 76.2695 115.848C76.0562 116.264 75.7575 116.595 75.3735 116.84C74.9895 117.075 74.5575 117.192 74.0775 117.192ZM74.8455 115.72C75.1868 115.72 75.4748 115.597 75.7095 115.352C75.9548 115.107 76.0775 114.797 76.0775 114.424C76.0775 114.104 75.9815 113.848 75.7895 113.656C75.5975 113.464 75.3308 113.368 74.9895 113.368C74.6375 113.368 74.3602 113.475 74.1575 113.688C73.9548 113.901 73.8535 114.195 73.8535 114.568C73.8535 114.92 73.9388 115.203 74.1095 115.416C74.2908 115.619 74.5362 115.72 74.8455 115.72ZM82.3083 104.68C82.2763 105.053 82.2496 105.437 82.2283 105.832C82.2176 106.227 82.2069 106.664 82.1963 107.144C82.1963 107.613 82.1909 108.141 82.1803 108.728C82.1803 109.315 82.1803 109.987 82.1803 110.744C82.1803 111.448 82.1803 112.088 82.1803 112.664C82.1803 113.229 82.1803 113.757 82.1803 114.248C82.1909 114.739 82.1963 115.208 82.1963 115.656C82.2069 116.093 82.2176 116.541 82.2283 117H80.0683C80.0789 116.445 80.0896 115.955 80.1003 115.528C80.1216 115.101 80.1376 114.659 80.1483 114.2C80.1589 113.731 80.1696 113.203 80.1803 112.616C80.1909 112.019 80.1963 111.272 80.1963 110.376C80.1963 109.469 80.1909 108.563 80.1803 107.656C80.1696 106.739 80.1483 105.8 80.1163 104.84L82.3083 104.68Z" fill="#490B3D"/>
<path d="M99.7691 38.7346C99.7691 38.9403 99.8204 39.0947 99.923 39.1975C100.026 39.3004 100.026 39.4547 99.923 39.6605V42.7469C99.923 43.7757 99.5638 44.6502 98.8453 45.3704C98.1268 46.0905 97.2543 46.4506 96.2279 46.4506H89.1455V96.4506C89.1455 97.4794 88.8376 98.3025 88.2217 98.9198C87.6059 99.537 86.7334 99.8971 85.6043 100H14.3187C13.2923 100 12.4198 99.6399 11.7013 98.9198C10.9828 98.1996 10.6236 97.3765 10.6236 96.4506V46.4506H3.54119C2.51476 46.4506 1.69361 46.0905 1.07775 45.3704C0.461894 44.6502 0.102643 43.7757 0 42.7469V39.6605C0 39.249 0.0513215 38.9403 0.153965 38.7346L9.23788 5.24691C9.75109 3.60082 10.6236 2.31481 11.8553 1.38889C13.087 0.462963 14.524 0 16.1663 0H83.7567C85.399 0 86.836 0.462963 88.0677 1.38889C89.2995 2.31481 90.1206 3.60082 90.5312 5.24691L99.7691 38.7346ZM78.5219 46.4506H21.4011V66.0494C21.4011 66.5638 21.6064 66.9753 22.0169 67.284C22.4275 67.5926 22.8381 67.7984 23.2487 67.9012H76.6744C77.1876 67.9012 77.6495 67.6955 78.0601 67.284C78.4706 66.8724 78.6246 66.4609 78.5219 66.0494V46.4506Z" fill="#490B3D"/>
<path d="M42.1328 75.7266H44.9453V93H42.1328V75.7266ZM47.1016 75.7266C47.8359 75.7266 48.5625 75.8438 49.2812 76.0781C50 76.3125 50.6406 76.6641 51.2031 77.1328C51.7812 77.6016 52.2422 78.1719 52.5859 78.8438C52.9453 79.5 53.125 80.2422 53.125 81.0703C53.125 81.9453 52.9766 82.7422 52.6797 83.4609C52.3828 84.1641 51.9688 84.7578 51.4375 85.2422C50.9062 85.7266 50.2656 86.1016 49.5156 86.3672C48.7656 86.6328 47.9375 86.7656 47.0312 86.7656H45.9062V84.7031H47.5234C47.8672 84.7031 48.2031 84.6484 48.5312 84.5391C48.875 84.4141 49.1875 84.2188 49.4688 83.9531C49.75 83.6875 49.9766 83.3203 50.1484 82.8516C50.3203 82.3672 50.4062 81.7734 50.4062 81.0703C50.4062 80.7891 50.3672 80.4688 50.2891 80.1094C50.2109 79.7344 50.0469 79.3828 49.7969 79.0547C49.5625 78.7109 49.2266 78.4297 48.7891 78.2109C48.3516 77.9766 47.7734 77.8594 47.0547 77.8594H45.9062V75.7266H47.1016Z" fill="white"/>
<g opacity="0.9" filter="url(#filter0_d)">
<path d="M57.9609 77.7266L57.9609 92.8672H50.0156V95H60.8203L60.8203 77.7266H57.9609Z" fill="white"/>
</g>
<path d="M50 5C41.6 5 34 10.4001 34 18.7517C34 24.0847 38.9 30.3569 48.68 37.5849C49.44 38.1384 50.58 38.1384 51.34 37.5849C61.1 30.3569 66 24.0847 66 18.7517C66 10.4001 58.4 5 50 5ZM46.46 22.8773L43.64 20.5126C43.4548 20.3574 43.308 20.1731 43.2077 19.9702C43.1075 19.7673 43.056 19.5499 43.056 19.3303C43.056 19.1108 43.1075 18.8933 43.2077 18.6905C43.308 18.4876 43.4548 18.3033 43.64 18.148C43.8252 17.9927 44.045 17.8696 44.2869 17.7856C44.5288 17.7015 44.7881 17.6583 45.05 17.6583C45.3119 17.6583 45.5712 17.7015 45.8131 17.7856C46.055 17.8696 46.2748 17.9927 46.46 18.148L47.88 19.3387L53.54 14.5927C53.7252 14.4374 53.945 14.3143 54.1869 14.2302C54.4288 14.1462 54.6881 14.103 54.95 14.103C55.2119 14.103 55.4712 14.1462 55.7131 14.2302C55.955 14.3143 56.1748 14.4374 56.36 14.5927C56.5452 14.7479 56.692 14.9323 56.7923 15.1351C56.8925 15.338 56.944 15.5554 56.944 15.775C56.944 15.9946 56.8925 16.212 56.7923 16.4149C56.692 16.6177 56.5452 16.802 56.36 16.9573L49.28 22.894C48.52 23.5313 47.24 23.5313 46.46 22.8773Z" fill="white"/>
<defs>
<filter id="filter0_d" x="46.0156" y="77.7266" width="18.8047" height="25.2734" filterUnits="userSpaceOnUse" color-interpolation-filters="sRGB">
<feFlood flood-opacity="0" result="BackgroundImageFix"/>
<feColorMatrix in="SourceAlpha" type="matrix" values="0 0 0 0 0 0 0 0 0 0 0 0 0 0 0 0 0 0 127 0"/>
<feOffset dy="4"/>
<feGaussianBlur stdDeviation="2"/>
<feColorMatrix type="matrix" values="0 0 0 0 0 0 0 0 0 0 0 0 0 0 0 0 0 0 0.25 0"/>
<feBlend mode="normal" in2="BackgroundImageFix" result="effect1_dropShadow"/>
<feBlend mode="normal" in="SourceGraphic" in2="effect1_dropShadow" result="shape"/>
</filter>
</defs>
</svg>
