<svg width="97" height="81" viewBox="0 0 97 81" fill="none" xmlns="http://www.w3.org/2000/svg">
<path d="M96.776 29.9138C96.776 30.0727 96.8258 30.1919 96.9253 30.2714C97.0249 30.3508 97.0249 30.47 96.9253 30.6289V33.0125C96.9253 33.807 96.5769 34.4823 95.8799 35.0385C95.183 35.5947 94.3367 35.8728 93.341 35.8728H86.4711V74.4866C86.4711 75.2811 86.1724 75.9168 85.5751 76.3935C84.9777 76.8702 84.1314 77.1483 83.0362 77.2277H13.8891C12.8935 77.2277 12.0472 76.9496 11.3503 76.3935C10.6533 75.8373 10.3048 75.2017 10.3048 74.4866V35.8728H3.43495C2.43931 35.8728 1.6428 35.5947 1.04542 35.0385C0.448037 34.4823 0.0995638 33.807 0 33.0125V30.6289C0 30.3111 0.0497819 30.0727 0.149346 29.9138L8.96074 4.05207C9.45856 2.78083 10.3048 1.78768 11.4996 1.07261C12.6944 0.357536 14.0883 0 15.6813 0H81.244C82.8371 0 84.2309 0.357536 85.4257 1.07261C86.6205 1.78768 87.417 2.78083 87.8152 4.05207L96.776 29.9138ZM76.1663 35.8728H20.759V51.0084C20.759 51.4057 20.9582 51.7235 21.3564 51.9619C21.7547 52.2002 22.1529 52.3591 22.5512 52.4386H74.3741C74.872 52.4386 75.32 52.2797 75.7182 51.9619C76.1165 51.6441 76.2658 51.3262 76.1663 51.0084V35.8728Z" fill="#BD1E51"/>
<path d="M40.9453 57.166H43.5234V73H40.9453V57.166ZM45.5 57.166C46.1731 57.166 46.8392 57.2734 47.498 57.4883C48.1569 57.7031 48.7441 58.0254 49.2597 58.4551C49.7897 58.8848 50.2122 59.4076 50.5273 60.0234C50.8567 60.625 51.0215 61.3053 51.0215 62.0645C51.0215 62.8665 50.8854 63.597 50.6133 64.2559C50.3411 64.9004 49.9616 65.4447 49.4746 65.8887C48.9876 66.3327 48.4004 66.6764 47.7129 66.9199C47.0254 67.1634 46.2662 67.2852 45.4355 67.2852H44.4043V65.3945H45.8867C46.2018 65.3945 46.5097 65.3444 46.8105 65.2441C47.1256 65.1296 47.4121 64.9505 47.6699 64.707C47.9277 64.4635 48.1354 64.127 48.2929 63.6973C48.4505 63.2533 48.5293 62.709 48.5293 62.0645C48.5293 61.8066 48.4935 61.513 48.4218 61.1836C48.3502 60.8398 48.1998 60.5176 47.9707 60.2168C47.7558 59.9017 47.4479 59.6439 47.0468 59.4434C46.6458 59.2285 46.1159 59.1211 45.457 59.1211H44.4043V57.166H45.5Z" fill="white"/>
<g opacity="0.9" filter="url(#filter0_d)">
<path d="M54.3416 57.166L54.3416 71.0449H47.0584V73H56.9627L56.9627 57.166H54.3416Z" fill="white"/>
</g>
<path d="M48.9755 7C42.7347 7 37.0882 11.091 37.0882 17.418C37.0882 21.4581 40.7287 26.2098 47.9948 31.6856C48.5594 32.1048 49.4064 32.1048 49.971 31.6856C57.2223 26.2098 60.8627 21.4581 60.8627 17.418C60.8627 11.091 55.2163 7 48.9755 7ZM46.3454 20.5434L44.2503 18.752C44.1127 18.6344 44.0036 18.4947 43.9292 18.3411C43.8547 18.1874 43.8164 18.0227 43.8164 17.8563C43.8164 17.69 43.8547 17.5252 43.9292 17.3716C44.0036 17.2179 44.1127 17.0782 44.2503 16.9606C44.3879 16.843 44.5512 16.7497 44.7309 16.686C44.9107 16.6224 45.1033 16.5896 45.2979 16.5896C45.4924 16.5896 45.6851 16.6224 45.8648 16.686C46.0445 16.7497 46.2079 16.843 46.3454 16.9606L47.4004 17.8627L51.6055 14.2672C51.7431 14.1496 51.9064 14.0563 52.0862 13.9926C52.2659 13.9289 52.4586 13.8962 52.6531 13.8962C52.8477 13.8962 53.0403 13.9289 53.22 13.9926C53.3998 14.0563 53.5631 14.1496 53.7007 14.2672C53.8382 14.3848 53.9474 14.5244 54.0218 14.6781C54.0963 14.8318 54.1346 14.9965 54.1346 15.1629C54.1346 15.3292 54.0963 15.4939 54.0218 15.6476C53.9474 15.8013 53.8382 15.9409 53.7007 16.0586L48.4406 20.5561C47.8759 21.0389 46.9249 21.0389 46.3454 20.5434Z" fill="white"/>
<defs>
<filter id="filter0_d" x="43.0584" y="57.166" width="17.9043" height="23.834" filterUnits="userSpaceOnUse" color-interpolation-filters="sRGB">
<feFlood flood-opacity="0" result="BackgroundImageFix"/>
<feColorMatrix in="SourceAlpha" type="matrix" values="0 0 0 0 0 0 0 0 0 0 0 0 0 0 0 0 0 0 127 0"/>
<feOffset dy="4"/>
<feGaussianBlur stdDeviation="2"/>
<feColorMatrix type="matrix" values="0 0 0 0 0 0 0 0 0 0 0 0 0 0 0 0 0 0 0.25 0"/>
<feBlend mode="normal" in2="BackgroundImageFix" result="effect1_dropShadow"/>
<feBlend mode="normal" in="SourceGraphic" in2="effect1_dropShadow" result="shape"/>
</filter>
</defs>
</svg>
